<?xml version="1.0" encoding="utf-8"?><!DOCTYPE svg PUBLIC "-//W3C//DTD SVG 1.1//EN" "http://www.w3.org/Graphics/SVG/1.1/DTD/svg11.dtd"><svg viewBox="0 0 511.634 511.634" xmlns="http://www.w3.org/2000/svg" xmlns:xlink="http://www.w3.org/1999/xlink"><style>:root>svg{display:none}:root>svg:target{display:block}</style><svg viewBox="0 0 24 23" id="account" xmlns="http://www.w3.org/2000/svg"><path fill-rule="evenodd" fill="var(--account-fill)" d="M4.146 5.88A2.144 2.144 0 012 3.736c0-1.187.96-2.146 2.146-2.146 1.187 0 2.146.959 2.146 2.146 0 1.186-.96 2.146-2.146 2.146zm0 7.87A2.145 2.145 0 012 11.603c0-1.186.96-2.145 2.146-2.145 1.187 0 2.146.959 2.146 2.145 0 1.187-.96 2.147-2.146 2.147zm0 7.868A2.144 2.144 0 012 19.472c0-1.187.96-2.146 2.146-2.146 1.187 0 2.146.96 2.146 2.146 0 1.187-.96 2.146-2.146 2.146zM12.014 5.88a2.144 2.144 0 01-2.146-2.146c0-1.187.96-2.146 2.146-2.146 1.187 0 2.146.959 2.146 2.146 0 1.186-.959 2.146-2.146 2.146zm0 7.869a2.145 2.145 0 01-2.146-2.147c0-1.186.96-2.145 2.146-2.145 1.187 0 2.146.959 2.146 2.145 0 1.187-.959 2.147-2.146 2.147zm0 7.868a2.144 2.144 0 01-2.146-2.146c0-1.187.96-2.146 2.146-2.146 1.187 0 2.146.96 2.146 2.146 0 1.187-.959 2.146-2.146 2.146zM19.883 5.88a2.144 2.144 0 01-2.146-2.146c0-1.187.96-2.146 2.146-2.146 1.187 0 2.146.959 2.146 2.146 0 1.186-.96 2.146-2.146 2.146zm0 7.869a2.145 2.145 0 01-2.146-2.147c0-1.186.96-2.145 2.146-2.145 1.187 0 2.146.959 2.146 2.145 0 1.187-.96 2.147-2.146 2.147zm0 7.868a2.144 2.144 0 01-2.146-2.146c0-1.187.96-2.146 2.146-2.146 1.187 0 2.146.96 2.146 2.146 0 1.187-.96 2.146-2.146 2.146z"/></svg><svg viewBox="0 0 22 9" id="arrow-next" xmlns="http://www.w3.org/2000/svg"><defs><style>.abcls-1{fill:#a3bbc8;fill-rule:evenodd}</style></defs><path class="abcls-1" d="M.3 5.47h16.94l-.1 2.86a.3.3 0 00-.08.2.323.323 0 00.08.21l.18.17a.267.267 0 00.4 0l4.2-4.21a.3.3 0 00.08-.2.323.323 0 00-.08-.21L17.72.08a.29.29 0 00-.4 0l-.18.17a.323.323 0 00-.08.21.318.318 0 00.08.2l.12 2.86H.29a.3.3 0 00-.29.3v1.37a.291.291 0 00.3.28z"/></svg><svg viewBox="0 0 22 9" id="arrow-prev" xmlns="http://www.w3.org/2000/svg"><defs><style>.accls-1{fill:#a3bbc8;fill-rule:evenodd}</style></defs><path class="accls-1" d="M21.7 3.53H4.76l.1-2.86a.3.3 0 00.08-.2.323.323 0 00-.08-.21L4.68.09a.267.267 0 00-.4 0L.08 4.3a.3.3 0 00-.08.2.323.323 0 00.08.21l4.2 4.21a.29.29 0 00.4 0l.18-.17a.323.323 0 00.08-.21.3.3 0 00-.08-.2l-.12-2.86h16.97a.3.3 0 00.29-.3V3.81a.291.291 0 00-.3-.28z"/></svg><svg viewBox="0 0 25 12" id="arrow-right" xmlns="http://www.w3.org/2000/svg"><path fill-rule="evenodd" fill="var(--arrow-right-fill)" d="M2.296 7.472h-.008 16.956l-.1 2.857a.287.287 0 00-.084.205c0 .077.03.15.084.205l.172.172a.286.286 0 00.407.002l4.193-4.211a.289.289 0 000-.41L19.723 2.08a.29.29 0 00-.407 0l-.172.173a.288.288 0 000 .405l.113 2.865H2.292A.298.298 0 002 5.818v1.37c0 .159.137.284.296.284z"/></svg><svg viewBox="0 0 24 24" id="arrow-right-one" xmlns="http://www.w3.org/2000/svg"><path d="M15.038 6.343l-1.411 1.418 3.27 3.255-13.605.013.002 2 13.568-.013-3.215 3.23 1.417 1.41 5.644-5.67-5.67-5.643z"/></svg><svg viewBox="0 0 41.78 40.406" id="awards" xmlns="http://www.w3.org/2000/svg"><defs><style>.afcls-1{fill:#a3bbc8;fill-rule:evenodd}</style></defs><path class="afcls-1" d="M12.56 31.95a8.516 8.516 0 01.83-3.671L.17 7.833a.919.919 0 01.11-1.139L6.6.276A.9.9 0 017.23.01h27.35a.882.882 0 01.63.266l6.32 6.418a.906.906 0 01.11 1.139L28.42 28.28a8.508 8.508 0 01.83 3.67 8.346 8.346 0 11-16.69 0zm1.79 0a6.556 6.556 0 106.56-6.661 6.617 6.617 0 00-6.56 6.661zm8.55-8.23a8.324 8.324 0 014.47 2.884L39.24 8.242H32.9zm-8.46 2.883a8.354 8.354 0 014.48-2.883L8.91 8.242H2.57zm6.45-3.127h.03l9.85-15.234H11.04zM3.07 6.429h35.67l-4.53-4.606H7.6zm17.25 28.919v-4.9h-.53a.907.907 0 010-1.814h1.42a.9.9 0 01.89.908v5.808a.89.89 0 11-1.78-.007z"/></svg><svg viewBox="0 0 22 20" id="basket" xmlns="http://www.w3.org/2000/svg"><path fill-rule="evenodd" fill="#243f4d" d="M7.526 18.978c-.536 0-1.063-.21-1.461-.607a2.066 2.066 0 01-.453-2.26 2.068 2.068 0 011.915-1.28h.006c.55 0 1.07.214 1.46.602.393.394.61.913.61 1.467 0 .84-.5 1.593-1.278 1.917-.258.108-.53.16-.799.16zm.007-2.963h-.004a.887.887 0 00-.628 1.518.89.89 0 10.632-1.518zm8.385 2.963c-.537 0-1.064-.21-1.461-.607a2.065 2.065 0 01-.452-2.26 2.065 2.065 0 011.913-1.28c.546-.04 1.08.218 1.468.603.392.393.607.912.607 1.466a2.064 2.064 0 01-1.274 1.917c-.26.108-.532.16-.8.16zm.006-2.963h-.001c-.331.032-.685.215-.823.548a.89.89 0 10.824-.548zm-11.279.163a.592.592 0 01-.536-.843c.579-1.24 1.627-1.973 3.054-2.15L6.108 7.792a.593.593 0 011.163-.227l1.091 5.578h9.423l1.807-6.771H6.29A4.354 4.354 0 012.007 2.68a.591.591 0 111.171-.175 3.165 3.165 0 003.115 2.682h14.07a.592.592 0 01.573.745l-2.123 7.956a.594.594 0 01-.573.44H7.885a.043.043 0 00-.023 0c-1.33 0-2.205.493-2.68 1.51a.593.593 0 01-.537.34z"/></svg><svg viewBox="0 0 9 14" id="blog-arrow" xmlns="http://www.w3.org/2000/svg"><path fill-rule="evenodd" fill="#262626" d="M2.333 12.687c-.15 0-.3-.062-.41-.183a.6.6 0 01.021-.831l4.547-4.475-4.547-4.474a.598.598 0 01-.177-.427c0-.145.052-.29.155-.404a.552.552 0 01.8-.023L7.7 6.768l.014.014a.557.557 0 01.113.169h.001a.613.613 0 01.052.244v.003c0 .086-.018.17-.053.25v.002a.6.6 0 01-.112.164l-.015.014-4.977 4.899a.55.55 0 01-.39.16z"/></svg><svg viewBox="0 0 511.634 511.634" id="calendar" xmlns="http://www.w3.org/2000/svg"><path d="M482.513 83.942c-7.225-7.233-15.797-10.85-25.694-10.85h-36.541v-27.41c0-12.56-4.477-23.315-13.422-32.261C397.906 4.475 387.157 0 374.591 0h-18.268c-12.565 0-23.318 4.475-32.264 13.422-8.949 8.945-13.422 19.701-13.422 32.261v27.41h-109.63v-27.41c0-12.56-4.475-23.315-13.422-32.261C178.64 4.475 167.886 0 155.321 0H137.05c-12.562 0-23.317 4.475-32.264 13.422-8.945 8.945-13.421 19.701-13.421 32.261v27.41H54.823c-9.9 0-18.464 3.617-25.697 10.85-7.233 7.232-10.85 15.8-10.85 25.697v365.453c0 9.89 3.617 18.456 10.85 25.693 7.232 7.231 15.796 10.849 25.697 10.849h401.989c9.897 0 18.47-3.617 25.694-10.849 7.234-7.234 10.852-15.804 10.852-25.693V109.639c-.001-9.9-3.615-18.464-10.845-25.697zM137.047 475.088H54.823v-82.23h82.224v82.23zm0-100.498H54.823v-91.358h82.224v91.358zm0-109.639H54.823v-82.223h82.224v82.223zm-6.42-130.618c-1.809-1.809-2.712-3.946-2.712-6.423V45.686c0-2.474.903-4.617 2.712-6.423 1.809-1.809 3.946-2.712 6.423-2.712h18.271c2.474 0 4.617.903 6.423 2.712 1.809 1.807 2.714 3.949 2.714 6.423v82.224c0 2.478-.909 4.615-2.714 6.423-1.807 1.809-3.946 2.712-6.423 2.712H137.05c-2.474.001-4.614-.903-6.423-2.712zm116.056 340.755h-91.365v-82.23h91.365v82.23zm0-100.498h-91.365v-91.358h91.365v91.358zm0-109.639h-91.365v-82.223h91.365v82.223zm109.64 210.137h-91.364v-82.23h91.364v82.23zm0-100.498h-91.364v-91.358h91.364v91.358zm0-109.639h-91.364v-82.223h91.364v82.223zm-6.427-130.618c-1.807-1.809-2.707-3.946-2.707-6.423V45.686c0-2.474.9-4.617 2.707-6.423 1.808-1.809 3.949-2.712 6.427-2.712h18.268c2.478 0 4.617.903 6.427 2.712 1.808 1.807 2.707 3.949 2.707 6.423v82.224c0 2.478-.903 4.615-2.707 6.423-1.807 1.809-3.949 2.712-6.427 2.712h-18.268c-2.477.001-4.626-.903-6.427-2.712zm106.916 340.755h-82.228v-82.23h82.228v82.23zm0-100.498h-82.228v-91.358h82.228v91.358zm0-109.639h-82.228v-82.223h82.228v82.223z"/></svg><svg xmlns:svgjs="http://svgjs.com/svgjs" viewBox="519 593 81 81" id="card-address" xmlns="http://www.w3.org/2000/svg"><svg width="81" height="81" xmlns:svgjs="http://svgjs.com/svgjs" fill="#fff" x="519" y="593"><svg width="81" height="81" viewBox="2 2 80 79.999"><path paint-order="stroke fill markers" fill-rule="evenodd" d="M22 2h40c11.06 0 20 8.94 20 20v40c0 11.06-8.94 20-20 20H22C10.94 82 2 73.06 2 62V22C2 10.94 10.94 2 22 2z"/></svg></svg><svg width="32" height="45" xmlns:svgjs="http://svgjs.com/svgjs" viewBox="0.148 0 31.704 45" fill="#a3bbc8" x="543" y="611"><svg width="32" height="45" viewBox="2 1.999 31 44.001"><path paint-order="stroke fill markers" fill-rule="evenodd" d="M16.597 45.81l-6.584-2.918-5.674 2.51a1.652 1.652 0 01-1.864-.355c-.49-.5-.613-1.23-.313-1.862l4.994-10.516a1.107 1.107 0 011.986-.023 1.1 1.1 0 01-.014 1.01L4.785 42.8l4.32-1.914a2.227 2.227 0 011.806.001l6.583 2.916h.011l6.585-2.917a2.222 2.222 0 011.804 0l4.32 1.914-4.342-9.145a1.093 1.093 0 01.174-1.275 1.107 1.107 0 011.798.288l4.994 10.518c.3.63.177 1.36-.313 1.86a1.648 1.648 0 01-1.863.356l-5.665-2.51-6.594 2.917a2.22 2.22 0 01-1.806 0zm-1.947-7.6L5.102 22.283A13.892 13.892 0 013.54 15.81c.023-3.642 1.464-7.083 4.06-9.689a13.903 13.903 0 019.702-4.12 13.897 13.897 0 019.999 4 13.76 13.76 0 014.158 9.893 13.691 13.691 0 01-1.562 6.39L20.349 38.21a3.293 3.293 0 01-2.849 1.61 3.294 3.294 0 01-2.85-1.61zm2.683-34.012C10.983 4.285 5.785 9.5 5.747 15.823a11.525 11.525 0 001.269 5.366l9.53 15.896c.29.487.764.54.954.54.19 0 .663-.053.955-.54l9.528-15.896a11.526 11.526 0 001.27-5.295 11.59 11.59 0 00-3.501-8.33 11.694 11.694 0 00-8.42-3.366zm-4.884 11.696c0-2.772 2.266-5.026 5.051-5.026s5.05 2.254 5.05 5.026c0 2.773-2.265 5.027-5.05 5.027-2.785 0-5.05-2.254-5.05-5.027zm2.206 0a2.842 2.842 0 002.845 2.832 2.84 2.84 0 002.844-2.832 2.84 2.84 0 00-2.844-2.83 2.841 2.841 0 00-2.845 2.83z"/></svg></svg></svg><svg xmlns:svgjs="http://svgjs.com/svgjs" viewBox="919 592 81 82" id="card-email" xmlns="http://www.w3.org/2000/svg"><svg width="81" height="82" xmlns:svgjs="http://svgjs.com/svgjs" viewBox="0 0.5 81 81" fill="#a3bbc8" x="919" y="592"><svg width="81" height="82" viewBox="2 1.918 80 80"><path paint-order="stroke fill markers" fill-rule="evenodd" d="M22 1.918h40c11.06 0 20 8.94 20 20v40c0 11.06-8.94 20-20 20H22c-11.06 0-20-8.94-20-20v-40c0-11.06 8.94-20 20-20z"/></svg></svg><svg width="38" height="36" xmlns:svgjs="http://svgjs.com/svgjs" viewBox="0 0.54 38 34.92" fill="#fff" x="941" y="615"><svg width="38" height="36" viewBox="2 1.918 36.999 34"><path paint-order="stroke fill markers" fill-rule="evenodd" d="M2.975 35.918a.958.958 0 01-.67-.272.93.93 0 01-.277-.659L2 14.786v-.017a.927.927 0 01.41-.754L7.73 10.4V6.56a.94.94 0 01.949-.932h6.067l5.217-3.546a.96.96 0 011.079.001l5.185 3.545h6.093a.94.94 0 01.947.932v3.882l5.297 3.621c.19.13.316.315.373.519.021.046.034.13.034.184l.028 20.17a.94.94 0 01-.946.933l-35.077.048zm2.773-1.867l29.478-.041-14.712-11.224L5.748 34.05zm-1.828-.965l11.443-8.73-11.466-7.793.023 16.523zm21.72-8.748l11.46 8.744-.023-16.565-11.438 7.821zM9.626 18.19l7.308 4.968 3-2.288a.96.96 0 011.16 0l2.977 2.272 7.301-4.993V7.493H9.626V18.19zm-5.013-3.408l3.118 2.12v-4.24l-3.118 2.12zm28.654 2.072l3.028-2.07-3.028-2.07v4.14zM18.08 5.629h4.828L20.5 3.984 18.08 5.63zm-3.994 12.303a.94.94 0 01-.948-.933.94.94 0 01.948-.932h12.83a.94.94 0 01.946.932.94.94 0 01-.946.933h-12.83zm0-4.847a.94.94 0 01-.948-.932.94.94 0 01.948-.932h12.83a.94.94 0 01.946.932.94.94 0 01-.946.932h-12.83z"/></svg></svg></svg><svg xmlns:svgjs="http://svgjs.com/svgjs" viewBox="1319 592 81 82" id="card-phone" xmlns="http://www.w3.org/2000/svg"><svg width="81" height="82" xmlns:svgjs="http://svgjs.com/svgjs" viewBox="0 0.5 81 81.001" fill="#fff" x="1319" y="592"><svg width="81" height="82" viewBox="2 1.918 80 80"><path paint-order="stroke fill markers" fill-rule="evenodd" d="M22 1.918h40c11.06 0 20 8.94 20 20v40c0 11.06-8.94 20-20 20H22c-11.06 0-20-8.94-20-20v-40c0-11.06 8.94-20 20-20z"/></svg></svg><svg width="38" height="46" xmlns:svgjs="http://svgjs.com/svgjs" viewBox="0 0.406 38 45.188" fill="#a3bbc8" x="1341" y="610"><svg width="38" height="46" viewBox="2 1.918 37 43.999"><path paint-order="stroke fill markers" fill-rule="evenodd" d="M15.44 40.922c0-2.754 2.27-4.995 5.06-4.995 2.79 0 5.06 2.241 5.06 4.995 0 2.755-2.27 4.995-5.06 4.995-2.79 0-5.06-2.24-5.06-4.995zm1.975 0c0 1.68 1.384 3.045 3.084 3.045 1.701 0 3.086-1.366 3.086-3.045 0-1.679-1.385-3.045-3.086-3.045-1.7 0-3.084 1.366-3.084 3.045zM28.88 29.586c0-2.755 2.27-4.995 5.06-4.995 2.789 0 5.059 2.24 5.059 4.995 0 2.754-2.27 4.995-5.06 4.995-2.79 0-5.059-2.241-5.059-4.995zm1.976 0c0 1.68 1.383 3.046 3.084 3.046 1.7 0 3.084-1.367 3.084-3.046 0-1.68-1.384-3.046-3.084-3.046-1.701 0-3.084 1.367-3.084 3.046zm-15.417 0c0-2.755 2.27-4.995 5.06-4.995 2.79 0 5.06 2.24 5.06 4.995 0 2.754-2.27 4.995-5.06 4.995-2.79 0-5.06-2.241-5.06-4.995zm1.975 0c0 1.68 1.384 3.046 3.084 3.046 1.701 0 3.086-1.367 3.086-3.046 0-1.68-1.385-3.046-3.086-3.046-1.7 0-3.084 1.367-3.084 3.046zM2 29.586c0-2.755 2.27-4.995 5.059-4.995 2.79 0 5.06 2.24 5.06 4.995 0 2.754-2.27 4.995-5.06 4.995-2.79 0-5.06-2.241-5.06-4.995zm1.974 0c0 1.68 1.384 3.046 3.085 3.046 1.7 0 3.084-1.367 3.084-3.046 0-1.68-1.383-3.046-3.084-3.046s-3.085 1.367-3.085 3.046zm24.907-11.337c0-2.754 2.27-4.995 5.06-4.995 2.789 0 5.059 2.241 5.059 4.995 0 2.755-2.27 4.995-5.06 4.995-2.79 0-5.059-2.24-5.059-4.995zm1.976 0c0 1.68 1.383 3.045 3.084 3.045 1.7 0 3.084-1.365 3.084-3.045 0-1.679-1.384-3.045-3.084-3.045-1.701 0-3.084 1.366-3.084 3.045zm-15.417 0c0-2.754 2.27-4.995 5.06-4.995 2.79 0 5.06 2.241 5.06 4.995 0 2.755-2.27 4.995-5.06 4.995-2.79 0-5.06-2.24-5.06-4.995zm1.975 0c0 1.68 1.384 3.045 3.084 3.045 1.701 0 3.086-1.365 3.086-3.045 0-1.679-1.385-3.045-3.086-3.045-1.7 0-3.084 1.366-3.084 3.045zM2 18.249c0-2.754 2.27-4.995 5.059-4.995 2.79 0 5.06 2.241 5.06 4.995 0 2.755-2.27 4.995-5.06 4.995-2.79 0-5.06-2.24-5.06-4.995zm1.974 0c0 1.68 1.384 3.045 3.085 3.045 1.7 0 3.084-1.365 3.084-3.045 0-1.679-1.383-3.045-3.084-3.045s-3.085 1.366-3.085 3.045zM28.881 6.913c0-2.755 2.27-4.995 5.06-4.995C36.73 1.918 39 4.158 39 6.913c0 2.754-2.27 4.995-5.06 4.995-2.79 0-5.059-2.24-5.059-4.995zm1.976 0c0 1.68 1.383 3.046 3.084 3.046 1.7 0 3.084-1.367 3.084-3.046 0-1.68-1.384-3.046-3.084-3.046-1.701 0-3.084 1.367-3.084 3.046zm-15.417 0c0-2.755 2.27-4.995 5.06-4.995 2.79 0 5.06 2.24 5.06 4.995 0 2.754-2.27 4.995-5.06 4.995-2.79 0-5.06-2.24-5.06-4.995zm1.975 0c0 1.68 1.384 3.046 3.084 3.046 1.701 0 3.086-1.367 3.086-3.046 0-1.68-1.385-3.046-3.086-3.046-1.7 0-3.084 1.367-3.084 3.046zM2 6.913c0-2.755 2.27-4.995 5.059-4.995 2.79 0 5.06 2.24 5.06 4.995 0 2.754-2.27 4.995-5.06 4.995-2.79 0-5.06-2.24-5.06-4.995zm1.974 0c0 1.68 1.384 3.046 3.085 3.046 1.7 0 3.084-1.367 3.084-3.046 0-1.68-1.383-3.046-3.084-3.046S3.974 5.234 3.974 6.913z"/></svg></svg></svg><svg viewBox="0 0 8.13 15.44" id="facebook-one" xmlns="http://www.w3.org/2000/svg"><defs><style>.amcls-1{fill:#a1a1a1;fill-rule:evenodd}</style></defs><path id="amPath_1" data-name="Path 1" class="amcls-1" d="M1069.19 1899.12c.41 0 .83.03 1.24.05.27.01.54.04.79.07l-.02 2.49h-.2c-.27 0-.54-.01-.82-.01-.2 0-.4.01-.61.01a1.041 1.041 0 00-1.18 1.09c-.02.6-.03 1.9-.03 1.97.03 0 .68.01 1.34.01.32 0 .64 0 .87-.01h.53c-.13.96-.26 1.87-.39 2.8h-2.35l-.06 6.97h-2.89l.06-6.99h-2.37l.02-2.77h2.38v-.21c.01-.56 0-1.12.02-1.68a7.581 7.581 0 01.09-1.06 3.145 3.145 0 011.27-2.08 3.6 3.6 0 012.08-.64c.08 0 .15-.01.23-.01z" transform="translate(-1063.09 -1899.12)"/></svg><svg viewBox="0 0 21 19" id="favorites" xmlns="http://www.w3.org/2000/svg"><path fill-rule="evenodd" fill="#243f4d" d="M10.913 17.244a.707.707 0 01-.28-.056c-.353-.15-8.65-3.75-8.65-10.76.091-2.65 2.207-4.707 4.818-4.707 1.743 0 3.266.918 4.112 2.31a4.796 4.796 0 014.112-2.31c2.61 0 4.725 2.058 4.817 4.684 0 7.034-8.297 10.634-8.65 10.783a.71.71 0 01-.279.056zM6.801 3.106c-1.847 0-3.343 1.47-3.408 3.346 0 5.408 6.125 8.663 7.52 9.335 1.395-.672 7.52-3.93 7.52-9.358-.065-1.853-1.563-3.323-3.408-3.323s-3.342 1.47-3.408 3.346a.7.7 0 01-.704.67.7.7 0 01-.705-.67c-.064-1.876-1.561-3.346-3.407-3.346z"/></svg><svg viewBox="0 0 64 57" id="get-1" xmlns="http://www.w3.org/2000/svg"><defs><style>.aocls-1{fill:#243f4d;fill-rule:evenodd}</style></defs><path class="aocls-1" d="M60.635 0H3.365A3.368 3.368 0 000 3.36V44.5a3.368 3.368 0 003.365 3.36h21.691l-.877 7h-3.633a1.07 1.07 0 100 2.14h22.908a1.07 1.07 0 100-2.14H39.82l-.877-7h21.692A3.368 3.368 0 0064 44.5V3.36A3.368 3.368 0 0060.635 0zM26.344 54.86l.877-7h9.558l.877 7H26.344zM61.852 44.5a1.213 1.213 0 01-1.217 1.21H3.365a1.212 1.212 0 01-1.217-1.21V3.36a1.221 1.221 0 011.217-1.22h57.27a1.222 1.222 0 011.217 1.22V44.5zM50.327 4.57H5.655a1.072 1.072 0 00-1.073 1.07v35.43a1.072 1.072 0 001.073 1.07h3.437a1.07 1.07 0 100-2.14H6.729V6.71h43.6a1.07 1.07 0 10-.002-2.14zm8.017 0h-3.436a1.07 1.07 0 100 2.14h2.363V40h-43.6a1.07 1.07 0 100 2.14h44.671a1.073 1.073 0 001.074-1.07V5.64a1.073 1.073 0 00-1.072-1.07zm-6.872 5.72a3.352 3.352 0 00-2.97 4.93l-8.6 9.09a3.322 3.322 0 00-1.408-.31 3.361 3.361 0 00-2.314.92l-7.348-3.88a3.364 3.364 0 10-6.684-.54 3.352 3.352 0 00.328 1.45l-8.406 8.14a3.331 3.331 0 00-1.539-.38 3.36 3.36 0 103.036 1.91l8.406-8.14a3.328 3.328 0 003.852-.55l7.348 3.88a3.54 3.54 0 00-.044.55 3.365 3.365 0 106.334-1.58l8.6-9.09a3.316 3.316 0 001.408.31 3.355 3.355 0 10.001-6.71zm-38.944 24a1.215 1.215 0 111.217-1.22 1.222 1.222 0 01-1.217 1.22zm12.981-12.58a1.21 1.21 0 111.217-1.21 1.213 1.213 0 01-1.217 1.21zm12.982 6.86a1.215 1.215 0 111.217-1.21 1.212 1.212 0 01-1.217 1.21zm12.981-13.71a1.215 1.215 0 111.217-1.22 1.222 1.222 0 01-1.217 1.22zm0 4.57a1.073 1.073 0 00-1.074 1.07v16a1.074 1.074 0 002.148 0v-16a1.073 1.073 0 00-1.074-1.07zm-25.963 6.86a1.066 1.066 0 00-1.074 1.07v9.14a1.074 1.074 0 002.148 0v-9.14a1.066 1.066 0 00-1.074-1.07zm12.982 6.85a1.073 1.073 0 00-1.074 1.07v2.29a1.074 1.074 0 002.147 0v-2.29a1.072 1.072 0 00-1.073-1.07z"/></svg><svg viewBox="0 0 64 40" id="get-2" xmlns="http://www.w3.org/2000/svg"><defs><style>.apcls-1{fill:#243f4d;fill-rule:evenodd}</style></defs><path class="apcls-1" d="M59.52 16.96l-1.658-6.55a1 1 0 00.793-.97V8.38a4.192 4.192 0 00-4.208-4.16H46.9V2.05A2.063 2.063 0 0044.829 0H6.346a2.063 2.063 0 00-2.071 2.05V20a1 1 0 002 0V2.05a.068.068 0 01.066-.07h38.481a.068.068 0 01.066.07V20a1 1 0 002 0v-1.12h11.826a3.27 3.27 0 013.114 2.24h-3.116a1 1 0 00-1 .99v2.11a3.131 3.131 0 003.14 3.11H62v4.35h-2.621a6.372 6.372 0 00-12 0H46.9v-7.46a1 1 0 00-2 0v7.46H24.1a6.372 6.372 0 00-12 0H6.339a.066.066 0 01-.066-.06v-2.18h4.342a.99.99 0 100-1.98H1a.99.99 0 100 1.98h3.274v2.18a2.061 2.061 0 002.071 2.04h5.413v.07a6.347 6.347 0 0012.693 0v-.07h22.584v.07a6.347 6.347 0 0012.693 0v-.07H63a.994.994 0 001-.99V22.11a5.235 5.235 0 00-4.48-5.15zM46.9 6.2h7.549a2.2 2.2 0 012.2 2.18v.07H46.9V6.2zm0 10.7v-6.47h8.9l1.637 6.47H46.9zM18.1 38.02a4.29 4.29 0 114.343-4.29 4.325 4.325 0 01-4.343 4.29zm35.274 0a4.29 4.29 0 114.342-4.29 4.325 4.325 0 01-4.338 4.29zM62 25.35h-1.14a1.137 1.137 0 01-1.136-1.13V23.1H62v2.25zm-43.892 6.33a2.05 2.05 0 102.071 2.05 2.063 2.063 0 00-2.079-2.05zm35.274 0a2.05 2.05 0 102.071 2.05 2.063 2.063 0 00-2.075-2.05zm-11.758-4.22H26.655a.99.99 0 100 1.98H41.62a.99.99 0 100-1.98zm-25.653-4.23H3.14a.99.99 0 100 1.98h12.827a.99.99 0 100-1.98zM34.85 9.79a1.023 1.023 0 00-1.417 0l-8.911 8.81-4.636-4.58a1 1 0 00-1.417 0 .98.98 0 000 1.4l5.344 5.28a1.01 1.01 0 001.417 0l9.62-9.51a.98.98 0 00-.004-1.4z"/></svg><svg viewBox="0 0 67 64" id="get-3" xmlns="http://www.w3.org/2000/svg"><defs><style>.aqcls-1{fill:#243f4d;fill-rule:evenodd}</style></defs><path class="aqcls-1" d="M57.06 53.46a4.359 4.359 0 00-2.21-3.23l-11.59-6.45a4.614 4.614 0 00-5.46.74l-4.07 4.03a2.4 2.4 0 01-3.1.24A75.725 75.725 0 0115.38 33.7a2.362 2.362 0 01.24-3.07l4.07-4.03a4.484 4.484 0 00.75-5.4L13.92 9.74a4.37 4.37 0 00-3.26-2.19A4.685 4.685 0 006.7 8.89l-4.29 4.24c-3.04 3.01-3.2 8.38-.45 15.13 2.62 6.46 7.61 13.53 14.05 19.9S29.6 59.48 36.13 62.07A23.842 23.842 0 0044.78 64a9.073 9.073 0 006.63-2.37l4.29-4.25a4.6 4.6 0 001.36-3.92zm-2.89 2.4l-.75.75-9.88-5.34a1.09 1.09 0 00-1.47.43 1.066 1.066 0 00.43 1.46l9.32 5.03-1.94 1.92c-2.35 2.32-7.06 2.31-12.94-.03-6.27-2.49-13.15-7.26-19.39-13.44S6.49 33.66 3.97 27.46c-2.36-5.82-2.37-10.49-.03-12.81l1.94-1.92 1.04 1.89a1.109 1.109 0 00.96.56 1.095 1.095 0 00.95-1.59l-1.35-2.44.75-.74a2.573 2.573 0 011.8-.76 1.841 1.841 0 01.33.03 2.221 2.221 0 011.67 1.11l6.52 11.47a2.363 2.363 0 01-.39 2.83L16.22 27l-5.08-9.22a1.1 1.1 0 00-1.47-.43 1.078 1.078 0 00-.44 1.46l5.39 9.77-.53.53a4.5 4.5 0 00-.45 5.87 75.017 75.017 0 007.28 8.32 76.9 76.9 0 008.41 7.21 4.624 4.624 0 005.94-.44l.53-.53 2.46 1.33a1.112 1.112 0 00.52.13 1.089 1.089 0 00.96-.56 1.064 1.064 0 00-.44-1.45l-1.9-1.03 1.93-1.92a2.438 2.438 0 012.86-.39l11.59 6.45a2.244 2.244 0 011.13 1.65 2.517 2.517 0 01-.74 2.11zm-2.14-28.37H50.8v-9.24a1.085 1.085 0 00-2.17 0v9.24h-5.67l2.02-9a1.069 1.069 0 00-.82-1.28 1.083 1.083 0 00-1.3.81l-2.31 10.31a1.073 1.073 0 00.21.9 1.091 1.091 0 00.85.41h7.01v3.5a1.09 1.09 0 002.18 0v-3.5h1.22a1.075 1.075 0 10.01-2.15zm-13.89 4.58h-7.99c.47-1.23 1.81-2.01 3.73-3.05 2.38-1.29 5.34-2.88 5.34-6.51a5.729 5.729 0 00-11.43 0 1.085 1.085 0 002.17 0 3.566 3.566 0 017.09 0c0 2.19-1.59 3.21-4.21 4.62-2.36 1.28-5.05 2.73-5.05 6.01a1.084 1.084 0 001.09 1.08h9.26a1.075 1.075 0 100-2.15zm22.93 12.62l-2.11.42A26.086 26.086 0 0067 26.27a26.608 26.608 0 00-48.27-15.11 1.065 1.065 0 00.26 1.5 1.1 1.1 0 001.51-.26 24.436 24.436 0 0144.33 13.87 23.961 23.961 0 01-7.59 17.5l.48-2.4a1.069 1.069 0 00-.85-1.26 1.085 1.085 0 00-1.28.84l-1.16 5.73a1.069 1.069 0 00.3.97 1.107 1.107 0 00.77.31.749.749 0 00.21-.02l5.79-1.14a1.077 1.077 0 10-.43-2.11zM40.45 4.58a1.073 1.073 0 00-1.08 1.07v2.3a1.085 1.085 0 002.17 0v-2.3a1.082 1.082 0 00-1.09-1.07zM61.28 25.2h-2.31a1.075 1.075 0 100 2.15h2.31a1.075 1.075 0 100-2.15zm-36.33-9.02l-2-1.15a1.091 1.091 0 00-1.48.4 1.064 1.064 0 00.39 1.46l2.01 1.15a1.063 1.063 0 00.54.14 1.081 1.081 0 00.94-.53 1.07 1.07 0 00-.4-1.47zm34.09 19.47l-2.01-1.14a1.075 1.075 0 10-1.08 1.86l2 1.14a1.063 1.063 0 00.54.14 1.081 1.081 0 00.94-.53 1.067 1.067 0 00-.39-1.47zM51.41 7.49a1.088 1.088 0 00-1.48.39l-1.16 1.98a1.074 1.074 0 00.94 1.61 1.093 1.093 0 00.94-.53l1.16-1.99a1.059 1.059 0 00-.4-1.46zM31.73 41.21a1.091 1.091 0 00-1.48.4l-1.16 1.98a1.073 1.073 0 00.4 1.47 1.174 1.174 0 00.54.14 1.07 1.07 0 00.94-.54l1.16-1.98a1.073 1.073 0 00-.4-1.47zm27.7-25.78a1.091 1.091 0 00-1.48-.4l-2 1.15a1.07 1.07 0 00-.4 1.47 1.093 1.093 0 00.94.53 1.063 1.063 0 00.54-.14l2.01-1.15a1.056 1.056 0 00.39-1.46zM25.35 34.9a1.079 1.079 0 00-1.48-.39l-2.01 1.14a1.072 1.072 0 00.55 2 1.063 1.063 0 00.54-.14l2-1.14a1.073 1.073 0 00.4-1.47zm6.78-25.04l-1.16-1.98a1.088 1.088 0 00-1.48-.39 1.059 1.059 0 00-.4 1.46l1.16 1.99a1.1 1.1 0 00.94.54 1.048 1.048 0 00.54-.15 1.07 1.07 0 00.4-1.47zm19.68 33.73l-1.16-1.98a1.091 1.091 0 00-1.48-.4 1.073 1.073 0 00-.4 1.47l1.16 1.98a1.07 1.07 0 00.94.54 1.174 1.174 0 00.54-.14 1.073 1.073 0 00.4-1.47z"/></svg><svg viewBox="0 0 48.03 63.94" id="get-4" xmlns="http://www.w3.org/2000/svg"><defs><style>.arcls-1{fill:#243f4d;fill-rule:evenodd}</style></defs><path class="arcls-1" d="M32.09 7.95a17.9 17.9 0 00-20.89 3.38 18.376 18.376 0 00-1.5 24.05 1.029 1.029 0 00.79.39.981.981 0 00.62-.22 1.011 1.011 0 00.17-1.41 16.324 16.324 0 011.33-21.38 15.907 15.907 0 0118.58-3.01 1 1 0 001.34-.44 1.018 1.018 0 00-.44-1.36zM40.06 16a.99.99 0 00-1.34-.44 1.007 1.007 0 00-.44 1.35 16.279 16.279 0 01-2.98 18.75A15.948 15.948 0 0114.12 37a.992.992 0 00-1.4.18 1.011 1.011 0 00.17 1.41 17.914 17.914 0 0023.82-1.5A18.316 18.316 0 0040.06 16zm-2.58-3.84c-.24-.28-.5-.56-.77-.83s-.54-.53-.82-.78a1.003 1.003 0 00-1.32 1.51c.25.23.49.46.73.7s.47.49.69.74a.991.991 0 00.74.34 1.05 1.05 0 00.67-.25 1.021 1.021 0 00.08-1.43zm10.04 13.86a3.439 3.439 0 000-3.58l-1.31-2.17a1.412 1.412 0 01-.19-.96l.39-2.51a3.427 3.427 0 00-1.36-3.31l-2.03-1.5a1.384 1.384 0 01-.54-.81l-.6-2.47a3.391 3.391 0 00-2.5-2.53l-2.45-.6a1.448 1.448 0 01-.81-.54l-1.48-2.06a3.365 3.365 0 00-3.28-1.37L28.88 2a1.374 1.374 0 01-.95-.19L25.77.49a3.326 3.326 0 00-3.54 0l-2.15 1.32a1.384 1.384 0 01-.95.19l-2.49-.39a3.373 3.373 0 00-3.28 1.37l-1.48 2.05a1.393 1.393 0 01-.8.55l-2.45.6a3.388 3.388 0 00-2.51 2.53l-.59 2.47a1.415 1.415 0 01-.54.81l-2.04 1.5a3.427 3.427 0 00-1.36 3.31l.39 2.51a1.406 1.406 0 01-.18.96L.48 22.44a3.484 3.484 0 000 3.58l1.32 2.17a1.406 1.406 0 01.18.96l-.39 2.51a3.427 3.427 0 001.36 3.31l2.04 1.5a1.384 1.384 0 01.54.81l.59 2.47a3.391 3.391 0 002.5 2.53l1.03.25-6.93 15.59a1.043 1.043 0 00.11 1.01.981.981 0 00.92.4l5.57-.67 3.21 4.65a1.01 1.01 0 00.82.43h.1a.994.994 0 00.81-.6l7.08-15.92.89.55a3.326 3.326 0 003.54 0l.93-.57 7.08 15.94a1.009 1.009 0 00.82.6h.09a1 1 0 00.82-.43l3.21-4.65 5.57.68a1.015 1.015 0 001.03-1.42l-6.93-15.6.99-.24a3.391 3.391 0 002.5-2.53l.6-2.47a1.384 1.384 0 01.54-.81l2.03-1.5a3.427 3.427 0 001.36-3.31l-.39-2.51a1.412 1.412 0 01.19-.96zM13.16 60.9l-2.54-3.69a.99.99 0 00-.94-.42l-4.41.53 6.31-14.2a1.421 1.421 0 01.3.3l1.48 2.06a3.958 3.958 0 00.47.53l-3.32 7.48a1.005 1.005 0 00.91 1.42 1 1 0 00.91-.6l3.31-7.45a3.725 3.725 0 001-.01l2.49-.39a1.086 1.086 0 01.44 0zm29.62-3.58l-4.42-.53a.983.983 0 00-.93.42l-2.55 3.69-6.41-14.45a1.136 1.136 0 01.41.01l2.48.39a3.3 3.3 0 001.04 0l3.31 7.46a1.012 1.012 0 00.91.6.978.978 0 00.41-.09 1.011 1.011 0 00.5-1.33l-3.33-7.51a3.5 3.5 0 00.44-.5l1.48-2.06a1.518 1.518 0 01.34-.33zm3.04-32.35l-1.32 2.17a3.435 3.435 0 00-.45 2.32l.39 2.51a1.419 1.419 0 01-.56 1.37l-2.04 1.5a3.4 3.4 0 00-1.3 1.96l-.6 2.48a1.383 1.383 0 01-1.03 1.04l-2.45.6a3.357 3.357 0 00-1.95 1.32l-1.48 2.05a1.39 1.39 0 01-1.36.57l-2.48-.4a3.42 3.42 0 00-2.3.46l-2.16 1.33a1.374 1.374 0 01-1.46 0l-2.15-1.33a3.4 3.4 0 00-1.78-.5 4.55 4.55 0 00-.52.04l-2.49.4a1.382 1.382 0 01-1.35-.57l-1.49-2.05a3.357 3.357 0 00-1.95-1.32l-2.45-.6a1.383 1.383 0 01-1.03-1.04l-.59-2.48a3.412 3.412 0 00-1.31-1.96l-2.03-1.5a1.426 1.426 0 01-.57-1.37l.4-2.51a3.5 3.5 0 00-.46-2.32l-1.31-2.17a1.409 1.409 0 010-1.48l1.31-2.17A3.5 3.5 0 003.96 19l-.39-2.52a1.391 1.391 0 01.56-1.36l2.03-1.5a3.467 3.467 0 001.31-1.97l.59-2.47a1.383 1.383 0 011.03-1.04l2.45-.6a3.412 3.412 0 001.96-1.32l1.48-2.05a1.382 1.382 0 011.35-.57l2.49.39a3.331 3.331 0 002.3-.46l2.15-1.32a1.374 1.374 0 011.46 0l2.16 1.32a3.31 3.31 0 002.3.46l2.48-.39a1.39 1.39 0 011.36.57l1.48 2.05a3.389 3.389 0 001.95 1.32l2.45.6a1.383 1.383 0 011.03 1.04l.6 2.47a3.42 3.42 0 001.3 1.97l2.04 1.5a1.411 1.411 0 01.56 1.36L44.05 19a3.435 3.435 0 00.45 2.32l1.32 2.17a1.453 1.453 0 010 1.48zm-10.13-3.88a1.788 1.788 0 00-1.51-1.24l-6.01-.72-2.53-5.55a1.8 1.8 0 00-3.28 0l-2.53 5.55-6.01.72a1.775 1.775 0 00-1.5 1.24 1.818 1.818 0 00.49 1.9l4.44 4.15-1.18 5.99a1.819 1.819 0 001.77 2.18 1.767 1.767 0 00.88-.24L24 32.09l5.28 2.98a1.757 1.757 0 001.94-.11 1.807 1.807 0 00.71-1.83l-1.18-5.99 4.44-4.15a1.8 1.8 0 00.5-1.9zm-6.7 4.95a1.006 1.006 0 00-.3.94l1.2 6.13-5.4-3.05a.947.947 0 00-.49-.13.973.973 0 00-.49.13l-5.4 3.05 1.21-6.13a1.031 1.031 0 00-.3-.94l-4.55-4.24 6.15-.74a1.01 1.01 0 00.79-.58L24 14.81l2.59 5.67a1.01 1.01 0 00.79.58l6.15.74z"/></svg><svg viewBox="0 0 22.66 14.38" id="google" xmlns="http://www.w3.org/2000/svg"><defs><style>.ascls-1{fill:#888;fill-rule:evenodd}</style></defs><path id="asUnion_6" data-name="Union 6" class="ascls-1" d="M1052.75 1960.35a7.121 7.121 0 01-6.59-5.65 6.6 6.6 0 01-.14-1.93 7.277 7.277 0 015.49-6.56 5.282 5.282 0 011.18-.19c.23-.01.46-.02.69-.02a6.786 6.786 0 013.4.93 9.386 9.386 0 011.27.93c-.72.71-1.41 1.4-2.11 2.09a3.914 3.914 0 00-2.1-1.02 4.259 4.259 0 00-.61-.04 4.307 4.307 0 00-4.14 3.35 3.817 3.817 0 00-.1 1.3 4.3 4.3 0 002.94 3.74 4.35 4.35 0 001.25.19c.1 0 .2-.01.3-.01a4.2 4.2 0 002.09-.67 3.314 3.314 0 001.43-2.17h-3.85c0-.09.02-1.89.02-2.76l.01-.12h6.76a7.773 7.773 0 01-1.28 6.05 6.273 6.273 0 01-3.55 2.32 7.539 7.539 0 01-1.94.25c-.14 0-.28 0-.42-.01zm13.33-4.05h-1.89v-.07l.02-2.43h-2.51v-.08l.02-1.82v-.07h2.5l.02-2.43v-.07h1.96v.07l-.02 2.43h2.51v.07l-.01 1.82v.08h-2.51l-.02 2.43v.07h-.07z" transform="translate(-1046.03 -1946)"/></svg><svg viewBox="0 0 18.03 11.41" id="googleplus-one" xmlns="http://www.w3.org/2000/svg"><defs><style>.atcls-1{fill:#a1a1a1;fill-rule:evenodd}</style></defs><path id="atUnion_1" data-name="Union 1" class="atcls-1" d="M1170.27 1912.73a5.653 5.653 0 01-5.24-4.49 5.314 5.314 0 01-.11-1.54 5.573 5.573 0 011.29-3.25 5.683 5.683 0 013.07-1.96 4.271 4.271 0 01.94-.14c.18-.01.36-.02.55-.02a5.311 5.311 0 012.69.74 6.276 6.276 0 011.01.74c-.57.56-1.11 1.11-1.67 1.66a3.053 3.053 0 00-1.67-.81 4.051 4.051 0 00-.48-.04 3.429 3.429 0 00-3.29 2.67 2.977 2.977 0 00-.08 1.03 3.429 3.429 0 002.33 2.97 3.365 3.365 0 001 .15c.08 0 .15-.01.23-.01a3.427 3.427 0 001.67-.53 2.65 2.65 0 001.13-1.72h-3.05c0-.08.01-1.5.01-2.2l.01-.09h5.36a6.171 6.171 0 01-1.01 4.81 5.029 5.029 0 01-2.82 1.84 6.2 6.2 0 01-1.54.2c-.11 0-.22-.01-.33-.01zm10.59-3.22h-1.51v-.06l.02-1.93h-1.99v-.06l.01-1.44v-.06h1.99l.01-1.93.01-.06h1.55v.06l-.01 1.93h1.99v.06l-.01 1.44v.06h-1.99l-.02 1.93v.06h-.05z" transform="translate(-1164.91 -1901.34)"/></svg><svg viewBox="0 0 17.19 17.19" id="instagram" xmlns="http://www.w3.org/2000/svg"><defs><style>.aucls-1{fill:#888;fill-rule:evenodd}</style></defs><path id="auUnion_5" data-name="Union 5" class="aucls-1" d="M1004.59 1961.94a4.322 4.322 0 01-3.43-3.75c-.23-1.45-.25-8.19.17-9.65a4.387 4.387 0 013.75-3.35 34.173 34.173 0 014.31-.19c1.6 0 3.22.04 4.19.1a4.724 4.724 0 013.14 1.28 4.517 4.517 0 011.38 2.94c.12 1.35.21 7.74-.19 9.24a4.411 4.411 0 01-3.8 3.44 42.333 42.333 0 01-4.74.19 29.143 29.143 0 01-4.78-.25zm.92-15.26a2.958 2.958 0 00-2.75 2.59 57.587 57.587 0 00-.06 8.69 2.8 2.8 0 002.12 2.43 27.569 27.569 0 004.63.25c1.8 0 3.57-.06 4.24-.13a2.941 2.941 0 002.75-2.6 61.315 61.315 0 00.11-8.45 2.9 2.9 0 00-2.58-2.74 40.212 40.212 0 00-4.3-.16c-1.71 0-3.41.04-4.16.12zm-.32 6.92a4.445 4.445 0 014.45-4.41 4.37 4.37 0 014.37 4.41 4.458 4.458 0 01-4.45 4.41 4.37 4.37 0 01-4.37-4.41zm1.55-.03a2.834 2.834 0 002.81 2.88h.02a2.882 2.882 0 002.88-2.82 2.82 2.82 0 00-2.8-2.88h-.03a2.881 2.881 0 00-2.88 2.82zm6.45-4.55a1.029 1.029 0 011.03-1.03h.01a1.016 1.016 0 011.02 1.04 1.035 1.035 0 01-1.04 1.02 1.014 1.014 0 01-1.02-1.03z" transform="translate(-1001 -1945)"/></svg><svg viewBox="0 0 13.62 13.66" id="instagram-one" xmlns="http://www.w3.org/2000/svg"><defs><style>.avcls-1{fill:#a1a1a1;fill-rule:evenodd}</style></defs><path id="avUnion_2" data-name="Union 2" class="avcls-1" d="M1133.34 1913.46a3.431 3.431 0 01-2.72-2.98 38.588 38.588 0 01.13-7.67 3.483 3.483 0 012.98-2.65 27.381 27.381 0 013.42-.15c1.28 0 2.56.03 3.33.07a3.78 3.78 0 012.5 1.02 3.638 3.638 0 011.09 2.33 43.2 43.2 0 01-.15 7.35 3.485 3.485 0 01-3.02 2.73 32.586 32.586 0 01-3.76.15 23.5 23.5 0 01-3.8-.2zm.73-12.12a2.349 2.349 0 00-2.18 2.06 45.652 45.652 0 00-.05 6.9 2.224 2.224 0 001.69 1.93 20.971 20.971 0 003.67.2c1.43 0 2.84-.05 3.37-.1a2.341 2.341 0 002.18-2.07 48.648 48.648 0 00.09-6.71 2.3 2.3 0 00-2.05-2.18 30.906 30.906 0 00-3.41-.13c-1.36 0-2.72.04-3.31.1zm-.25 5.5a3.517 3.517 0 013.53-3.5 3.459 3.459 0 013.47 3.5 3.53 3.53 0 01-3.53 3.5 3.466 3.466 0 01-3.47-3.5zm1.23-.03a2.252 2.252 0 002.23 2.29h.02a2.284 2.284 0 002.28-2.24 2.237 2.237 0 00-2.22-2.29h-.02a2.293 2.293 0 00-2.29 2.24zm5.12-3.61a.824.824 0 01.82-.82h.01a.815.815 0 01.81.82.826.826 0 01-.83.82.815.815 0 01-.81-.82z" transform="translate(-1130.5 -1900)"/></svg><svg viewBox="0 0 18 14.81" id="message-one" xmlns="http://www.w3.org/2000/svg"><defs><style>.awcls-1{fill:#436372;fill-rule:evenodd}</style></defs><path class="awcls-1" d="M3 14.81a.415.415 0 01-.16-.03.42.42 0 01-.27-.38v-2.07H1.29A1.262 1.262 0 010 11.1V1.23A1.262 1.262 0 011.29 0h15.42A1.262 1.262 0 0118 1.23v9.87a1.262 1.262 0 01-1.29 1.23H5.77L3.3 14.69a.423.423 0 01-.3.12zM1.29.82a.423.423 0 00-.43.41v9.87a.423.423 0 00.43.41H3a.417.417 0 01.43.41v1.49l1.86-1.78a.407.407 0 01.3-.12h11.12a.423.423 0 00.43-.41V1.23a.423.423 0 00-.43-.41H1.29zm4.77 5.34a.646.646 0 11-.65-.61.63.63 0 01.65.61zm3.58 0a.64.64 0 01-1.28 0A.619.619 0 019 5.55a.626.626 0 01.64.61zm3.35 0a.646.646 0 11-.65-.61.63.63 0 01.65.61z"/></svg><svg viewBox="0 0 18 12.38" id="post-one" xmlns="http://www.w3.org/2000/svg"><defs><style>.axcls-1{fill:#436372;fill-rule:evenodd}</style></defs><path class="axcls-1" d="M16.71 12.37H1.29A1.262 1.262 0 010 11.14v-9.9A1.27 1.27 0 011.29 0h15.42A1.27 1.27 0 0118 1.24v9.9a1.262 1.262 0 01-1.29 1.23zM1.29.83a.417.417 0 00-.43.41v9.9a.423.423 0 00.43.41h15.42a.423.423 0 00.43-.41v-9.9a.417.417 0 00-.43-.41H1.29zM9 6.42a1.319 1.319 0 01-.74-.23L.48.95a.4.4 0 01-.1-.57.428.428 0 01.59-.1l7.78 5.24a.454.454 0 00.5 0L17.03.28a.428.428 0 01.59.1.4.4 0 01-.1.57L9.74 6.19a1.319 1.319 0 01-.74.23zm8.32 5.71a.423.423 0 01-.3-.12L10.4 5.65a.423.423 0 010-.59.448.448 0 01.61 0l6.61 6.37a.394.394 0 010 .58.423.423 0 01-.3.12zm-16.64 0a.423.423 0 01-.3-.12.394.394 0 010-.58l6.61-6.37a.448.448 0 01.61 0 .423.423 0 010 .59L.98 12.01a.423.423 0 01-.3.12z"/></svg><svg viewBox="0 0 26 23" id="product-basket" xmlns="http://www.w3.org/2000/svg"><path fill-rule="evenodd" fill="var(--product-basket-fill)" d="M2.814 3.629h2.333L8.47 15.667c.095.353.42.597.787.597h10.214c.326 0 .61-.19.746-.488l3.717-8.56a.828.828 0 00-.068-.776.81.81 0 00-.678-.366H11.902a.817.817 0 000 1.631H21.94l-3.011 6.929H9.867L6.544 2.596a.814.814 0 00-.787-.598H2.814A.818.818 0 002 2.814c0 .448.366.815.814.815zm5.67 18.37a1.849 1.849 0 000-3.696 1.848 1.848 0 000 3.696zm11.53 0h.135c.489-.041.936-.259 1.262-.64a1.85 1.85 0 00-1.52-3.057 1.85 1.85 0 00-1.708 1.971 1.85 1.85 0 001.83 1.726z"/></svg><svg viewBox="0 0 26 21" id="product-favorites" xmlns="http://www.w3.org/2000/svg"><path fill-rule="evenodd" fill="var(--product-favorites-fill)" d="M23.99 7.82a6.211 6.211 0 00-1.849-4.1c-1.125-1.11-2.596-1.721-4.139-1.721-2.311 0-3.948 1.785-4.827 2.745l-.156.17-.083-.095C12.132 3.903 10.46 2 7.998 2c-1.543 0-3.013.61-4.139 1.72A6.21 6.21 0 002.01 7.82c-.082 1.541.31 2.88 1.27 4.338.862 1.308 3.105 3.374 4.764 4.748 1.705 1.41 3.95 3.093 4.965 3.093 1.032 0 3.27-1.68 4.965-3.087 1.646-1.367 3.876-3.432 4.746-4.754.646-.984 1.375-2.366 1.27-4.338zm-2.376 3.61c-.632.961-2.412 2.736-4.43 4.418-2.407 2.004-3.832 2.795-4.173 2.826-.342-.035-1.77-.833-4.188-2.843-2.03-1.686-3.813-3.454-4.437-4.402-.795-1.206-1.12-2.297-1.054-3.538.135-2.519 2.228-4.57 4.666-4.57 1.863 0 3.216 1.543 3.943 2.371.428.488.663.755 1.06.755.408 0 .671-.286 1.15-.81.794-.865 2.122-2.315 3.851-2.315 2.438 0 4.531 2.05 4.666 4.57.067 1.253-.248 2.312-1.054 3.538z"/></svg><svg viewBox="0 0 24 24" id="product-search" xmlns="http://www.w3.org/2000/svg"><path fill-rule="evenodd" fill="var(--product-search-fill)" d="M21.45 18.798l-4.588-4.589a8.813 8.813 0 01-2.651 2.651l4.588 4.588a1.874 1.874 0 102.651-2.65zM17 9.498a7.502 7.502 0 00-7.5-7.5 7.501 7.501 0 000 15 7.5 7.5 0 007.5-7.5zm-7.5 5.625A5.63 5.63 0 013.875 9.5 5.632 5.632 0 019.5 3.873a5.632 5.632 0 015.625 5.626A5.63 5.63 0 019.5 15.123zM5.125 9.5h1.25A3.128 3.128 0 019.5 6.374v-1.25a4.38 4.38 0 00-4.375 4.375z"/></svg><svg viewBox="0 0 36.41 37.719" id="projects" xmlns="http://www.w3.org/2000/svg"><defs><style>.bbcls-1{fill:#a3bbc8;fill-rule:evenodd}</style></defs><path class="bbcls-1" d="M1.975 37.71A1.984 1.984 0 010 35.719V8.441a.915.915 0 01.264-.643L7.74.256a.9.9 0 01.638-.267h19.09a1.98 1.98 0 011.97 1.991v2.87a.9.9 0 11-1.8 0V1.98a.172.172 0 00-.17-.17H9.278v5.552a1.98 1.98 0 01-1.97 1.99h-5.5v26.367a.17.17 0 00.168.17h25.5a.173.173 0 00.17-.17v-13.9a.9.9 0 111.8 0v13.9a1.98 1.98 0 01-1.97 1.991h-25.5zM3.083 7.532H7.31a.17.17 0 00.168-.17V3.097zM7.059 31.24a.91.91 0 010-1.82H11l1.39-5.066a.9.9 0 01.23-.4l.02-.015H7.059a.91.91 0 010-1.82h7.381l5.43-5.48H7.059a.911.911 0 010-1.821H21.68l8.43-8.5a3.038 3.038 0 014.32 0l1.06 1.071a3.1 3.1 0 010 4.356L18 29.382a.889.889 0 01-.39.234l-5.7 1.6c-.03.007-.23.029-.23.029H7.059zm5.921-2.218l2.65-.744-1.91-1.933zm1.56-4.424l2.83 2.853L31.8 12.889l-2.83-2.852zm16.84-17L30.25 8.75l2.83 2.853 1.13-1.147a1.264 1.264 0 000-1.782l-1.06-1.071a1.225 1.225 0 00-.88-.369 1.265 1.265 0 00-.89.368z"/></svg><svg viewBox="0 0 43.12 39.094" id="revenue" xmlns="http://www.w3.org/2000/svg"><defs><style>.bccls-1{fill:#a3bbc8;fill-rule:evenodd}</style></defs><path class="bccls-1" d="M37.87 9.304V2.178A2.174 2.174 0 0036.82.291 2.076 2.076 0 0034.69.27a48.669 48.669 0 01-20.7 6.383l-6.68.034a3.286 3.286 0 00-3.23 2.949H2.72A2.749 2.749 0 00.01 12.41v6.1a2.748 2.748 0 002.71 2.774h1.36a3.32 3.32 0 001.91 2.664l4.85 13.723a2.118 2.118 0 001.98 1.428h4.86a2.1 2.1 0 001.73-.925 2.221 2.221 0 00.25-1.986l-4.15-11.785a48.668 48.668 0 0119.18 6.244 2.08 2.08 0 002.13-.021 2.174 2.174 0 001.05-1.887v-7.126a6.228 6.228 0 000-12.309zM4.05 19.14H2.72a.622.622 0 01-.62-.634v-6.1a.623.623 0 01.62-.634h1.33v7.364zm2.78 2.844a1.2 1.2 0 01-.69-1.1V10.03a1.185 1.185 0 011.17-1.2h5.67v13.262H7.23a1.027 1.027 0 01-.4-.108zm10.88 14.93a.037.037 0 01-.01.028c-.01.013-.01.013-.02.013h-4.86a.049.049 0 01-.03-.018L8.31 24.229h4.92zm18.08-8.179a.037.037 0 01-.03.041.04.04 0 01-.05 0 50.66 50.66 0 00-20.65-6.57v-13.5a50.692 50.692 0 0020.65-6.571.04.04 0 01.05 0 .037.037 0 01.03.041v26.557zm2.08-9.292v-7.974a4.089 4.089 0 010 7.974z"/></svg><svg viewBox="0 0 19 20" id="search" xmlns="http://www.w3.org/2000/svg"><path fill-rule="evenodd" fill="var(--search-fill)" d="M4.702 8.076c.356-.065.68.13.746.484.096.582.355 1.067.78 1.49.42.388.941.677 1.493.776.325.066.552.39.487.743a.643.643 0 01-.714.516 4.2 4.2 0 01-2.143-1.13 4.165 4.165 0 01-1.136-2.137c-.065-.354.128-.676.487-.742zm3.278-6.08c3.466 0 6.279 2.8 6.279 6.257 0 .93-.203 1.812-.568 2.604l2.336 2.036c1.703 1.747.746 3.266.294 3.717-.422.454-1.993 1.415-3.73-.292l-2.06-2.35c-.78.345-1.64.539-2.548.539-3.468 0-6.278-2.802-6.278-6.257 0-3.456 2.807-6.254 6.275-6.254zm5.546 13.517c.293.324 1.126.867 1.88.226.21-.176.634-1.068-.227-1.873l-2.162-1.88a6.267 6.267 0 01-1.363 1.34l1.872 2.187zM7.98 13.201c2.742 0 4.966-2.216 4.966-4.948S10.722 3.305 7.98 3.305 3.015 5.521 3.015 8.253s2.22 4.948 4.965 4.948z"/></svg><svg viewBox="0 0 53 52" id="support" xmlns="http://www.w3.org/2000/svg"><path fill-rule="evenodd" fill="#a3bbc8" d="M47.312 12.67a.938.938 0 10-1.592.992 22.618 22.618 0 013.424 11.988c0 12.506-10.175 22.68-22.68 22.68-4.952 0-9.656-1.566-13.604-4.53a.937.937 0 10-1.125 1.5c4.275 3.21 9.368 4.906 14.728 4.906 13.54 0 24.556-11.016 24.556-24.556 0-4.604-1.282-9.093-3.707-12.98zm-23.03 21.938h-7.55l4.743-4.743a12.698 12.698 0 003.744-9.039 5.851 5.851 0 00-5.844-5.844 5.851 5.851 0 00-5.844 5.844.938.938 0 101.875 0c0-2.189 1.78-3.97 3.969-3.97 2.188 0 3.969 1.781 3.969 3.97 0 2.914-1.135 5.653-3.195 7.714l-6.344 6.343a.938.938 0 00.663 1.6h9.813a.938.938 0 000-1.875zm15.04-6.437H36.72v-1.517a.938.938 0 00-1.875 0v1.517h-5.286l5.286-8.853v4.21a.937.937 0 101.875 0V15.92v-.008a.936.936 0 00-1.743-.473l-7.875 13.19a.937.937 0 00.805 1.418h6.938v5.5a.938.938 0 001.875 0v-5.5h2.601a.938.938 0 000-1.875zM44.65 5.538a.938.938 0 00-1.875.045l.042 1.749a24.405 24.405 0 00-6.345-4.112 24.367 24.367 0 00-10.01-2.126c-13.54 0-24.556 11.016-24.556 24.556 0 6.648 2.615 12.875 7.362 17.53a.931.931 0 001.326-.012.937.937 0 00-.014-1.325C6.197 37.541 3.782 31.79 3.782 25.65c0-12.506 10.175-22.68 22.681-22.68A22.76 22.76 0 0141.57 8.736l-1.843.043a.937.937 0 00.022 1.874h.023l4.06-.096a.938.938 0 00.915-.96l-.096-4.06z"/></svg><svg viewBox="0 0 14.31 11.62" id="twitter-one" xmlns="http://www.w3.org/2000/svg"><defs><style>.bfcls-1{fill:#a1a1a1;fill-rule:evenodd}</style></defs><path id="bfPath_2" data-name="Path 2" class="bfcls-1" d="M1109.69 1902.28c-.11.16-.21.3-.33.45a5.7 5.7 0 01-1.07 1.01l-.05.09a8.22 8.22 0 01-.07 1.31 8.818 8.818 0 01-.77 2.61 8.712 8.712 0 01-1.6 2.3 7.864 7.864 0 01-4.05 2.25 8.967 8.967 0 01-1.64.2h-.26a8.172 8.172 0 01-4.42-1.27l-.07-.04a5.322 5.322 0 00.69.04 6.049 6.049 0 002.25-.44 5.834 5.834 0 001.4-.82 2.9 2.9 0 01-2.71-2.03 3.287 3.287 0 00.54.05 2.82 2.82 0 00.71-.09l.05-.02a2.9 2.9 0 01-2.32-2.9 2.914 2.914 0 001.31.35 2.914 2.914 0 01-1.2-1.78 2.877 2.877 0 01.34-2.12 8.311 8.311 0 006.02 3.07c-.02-.12-.03-.22-.05-.33a2.8 2.8 0 01.45-1.91 2.853 2.853 0 011.99-1.33 3.439 3.439 0 01.54-.04 2.833 2.833 0 012.03.86.139.139 0 00.1.05.09.09 0 00.05-.01 5.547 5.547 0 001.71-.65l.04-.02a2.919 2.919 0 01-1.25 1.6 5.859 5.859 0 001.64-.44z" transform="translate(-1095.38 -1900.88)"/></svg><svg viewBox="0 0 32 32" id="user" xmlns="http://www.w3.org/2000/svg"><path d="M16 22c4.963 0 9-4.936 9-11S20.962 0 16 0c-2.447 0-4.734 1.174-6.438 3.305C7.909 5.37 7 8.104 7 11.001 7 17.064 11.037 22 16 22zm0-19.999c3.859 0 7 4.037 7 9 0 4.962-3.141 9-7 9s-7-4.038-7.001-9c0-4.963 3.141-9 7.001-9zM23 20a1 1 0 100 2c3.859 0 7 3.141 7 7 0 .551-.449 1-1 1H3c-.551 0-1-.449-1-1 0-3.859 3.141-7 7-7a1 1 0 100-2c-4.963 0-9 4.037-9 9 0 1.654 1.346 3 3 3h26c1.654 0 3-1.346 3-3 0-4.962-4.037-9-9-9z"/></svg><svg viewBox="0 0 13.687 13.16" id="user-one" xmlns="http://www.w3.org/2000/svg"><defs><style>.bhcls-1{fill:#436372;fill-rule:evenodd}</style></defs><path class="bhcls-1" d="M13.257 13.17H.424a.426.426 0 01-.428-.42 6.85 6.85 0 0113.689 0 .426.426 0 01-.428.42zm-12.39-.83h11.947a6.011 6.011 0 00-11.947 0zM6.841 7a3.5 3.5 0 113.636-3.5A3.574 3.574 0 016.841 7zm0-6.17a2.672 2.672 0 102.78 2.67A2.732 2.732 0 006.841.83z"/></svg><svg viewBox="0 0 127 127" id="video_arrow" xmlns="http://www.w3.org/2000/svg"><path fill="var(--circle127-fill)" d="M56.58 0h14.05l1.02.2c3.02.72 6.03 1.46 9.05 2.2 17.94 4.92 33.19 18.15 40.74 35.14 2.89 6.15 4.1 12.46 5.56 19.05v14.04c-.71 3.38-1.6 6.72-2.4 10.07-4.95 18.19-18.54 33.6-35.83 41.04-5.95 2.7-11.96 3.83-18.36 5.26H56.36c-3.37-.71-6.7-1.6-10.06-2.4-17.45-4.79-32.38-17.44-40.11-33.79C2.92 84.31 1.55 77.45 0 70.42V56.36c1.54-6.47 2.69-12.76 5.56-18.81 7.55-17 22.8-30.22 40.75-35.15C49.72 1.55 53.14.71 56.58 0z"/><path fill="var(--circle98-fill)" d="M56.41 14.46c18.39-2.61 37.4 6.01 47.51 21.59 10.43 15.57 10.75 36.76.8 52.65-7.13 11.67-19.27 20.01-32.72 22.45-11.13 2.12-22.93.2-32.81-5.34-10.66-5.85-18.85-15.8-22.68-27.33-5.04-15.02-2.32-32.1 7.21-44.76 7.7-10.45 19.83-17.56 32.69-19.26z"/><path fill="var(--arrow-fill)" d="M57.53 50.52c4.71 2.47 9.1 5.59 13.75 8.21 1.74 1.34 4.59 2.19 3.45 4.95-4.2 3.58-9.48 5.9-14.03 9.05-2.39 1.23-5 3.74-7.34.95-.73-3.77-.27-7.85-.36-11.68.05-3.5-.33-7.24.36-10.68 1.23-1.37 2.5-1.69 4.17-.8z"/></svg></svg>