<?xml version="1.0" encoding="utf-8"?><!DOCTYPE svg PUBLIC "-//W3C//DTD SVG 1.1//EN" "http://www.w3.org/Graphics/SVG/1.1/DTD/svg11.dtd"><svg viewBox="0 0 511.634 511.634" xmlns="http://www.w3.org/2000/svg" xmlns:xlink="http://www.w3.org/1999/xlink"><style>:root>svg{display:none}:root>svg:target{display:block}</style><svg viewBox="0 0 24 23" id="account" xmlns="http://www.w3.org/2000/svg"><path fill-rule="evenodd" fill="var(--account-fill)" d="M4.146 5.88A2.144 2.144 0 012 3.736c0-1.187.96-2.146 2.146-2.146 1.187 0 2.146.959 2.146 2.146 0 1.186-.96 2.146-2.146 2.146zm0 7.87A2.145 2.145 0 012 11.603c0-1.186.96-2.145 2.146-2.145 1.187 0 2.146.959 2.146 2.145 0 1.187-.96 2.147-2.146 2.147zm0 7.868A2.144 2.144 0 012 19.472c0-1.187.96-2.146 2.146-2.146 1.187 0 2.146.96 2.146 2.146 0 1.187-.96 2.146-2.146 2.146zM12.014 5.88a2.144 2.144 0 01-2.146-2.146c0-1.187.96-2.146 2.146-2.146 1.187 0 2.146.959 2.146 2.146 0 1.186-.959 2.146-2.146 2.146zm0 7.869a2.145 2.145 0 01-2.146-2.147c0-1.186.96-2.145 2.146-2.145 1.187 0 2.146.959 2.146 2.145 0 1.187-.959 2.147-2.146 2.147zm0 7.868a2.144 2.144 0 01-2.146-2.146c0-1.187.96-2.146 2.146-2.146 1.187 0 2.146.96 2.146 2.146 0 1.187-.959 2.146-2.146 2.146zM19.883 5.88a2.144 2.144 0 01-2.146-2.146c0-1.187.96-2.146 2.146-2.146 1.187 0 2.146.959 2.146 2.146 0 1.186-.96 2.146-2.146 2.146zm0 7.869a2.145 2.145 0 01-2.146-2.147c0-1.186.96-2.145 2.146-2.145 1.187 0 2.146.959 2.146 2.145 0 1.187-.96 2.147-2.146 2.147zm0 7.868a2.144 2.144 0 01-2.146-2.146c0-1.187.96-2.146 2.146-2.146 1.187 0 2.146.96 2.146 2.146 0 1.187-.96 2.146-2.146 2.146z"/></svg><svg viewBox="0 0 25 12" id="arrow-right" xmlns="http://www.w3.org/2000/svg"><path fill-rule="evenodd" fill="var(--arrow-right-fill)" d="M2.296 7.472h-.008 16.956l-.1 2.857a.287.287 0 00-.084.205c0 .077.03.15.084.205l.172.172a.286.286 0 00.407.002l4.193-4.211a.289.289 0 000-.41L19.723 2.08a.29.29 0 00-.407 0l-.172.173a.288.288 0 000 .405l.113 2.865H2.292A.298.298 0 002 5.818v1.37c0 .159.137.284.296.284z"/></svg><svg viewBox="0 0 22 20" id="basket" xmlns="http://www.w3.org/2000/svg"><path fill-rule="evenodd" fill="#243f4d" d="M7.526 18.978c-.536 0-1.063-.21-1.461-.607a2.066 2.066 0 01-.453-2.26 2.068 2.068 0 011.915-1.28h.006c.55 0 1.07.214 1.46.602.393.394.61.913.61 1.467 0 .84-.5 1.593-1.278 1.917-.258.108-.53.16-.799.16zm.007-2.963h-.004a.887.887 0 00-.628 1.518.89.89 0 10.632-1.518zm8.385 2.963c-.537 0-1.064-.21-1.461-.607a2.065 2.065 0 01-.452-2.26 2.065 2.065 0 011.913-1.28c.546-.04 1.08.218 1.468.603.392.393.607.912.607 1.466a2.064 2.064 0 01-1.274 1.917c-.26.108-.532.16-.8.16zm.006-2.963h-.001c-.331.032-.685.215-.823.548a.89.89 0 10.824-.548zm-11.279.163a.592.592 0 01-.536-.843c.579-1.24 1.627-1.973 3.054-2.15L6.108 7.792a.593.593 0 011.163-.227l1.091 5.578h9.423l1.807-6.771H6.29A4.354 4.354 0 012.007 2.68a.591.591 0 111.171-.175 3.165 3.165 0 003.115 2.682h14.07a.592.592 0 01.573.745l-2.123 7.956a.594.594 0 01-.573.44H7.885a.043.043 0 00-.023 0c-1.33 0-2.205.493-2.68 1.51a.593.593 0 01-.537.34z"/></svg><svg viewBox="0 0 9 14" id="blog-arrow" xmlns="http://www.w3.org/2000/svg"><path fill-rule="evenodd" fill="#262626" d="M2.333 12.687c-.15 0-.3-.062-.41-.183a.6.6 0 01.021-.831l4.547-4.475-4.547-4.474a.598.598 0 01-.177-.427c0-.145.052-.29.155-.404a.552.552 0 01.8-.023L7.7 6.768l.014.014a.557.557 0 01.113.169h.001a.613.613 0 01.052.244v.003c0 .086-.018.17-.053.25v.002a.6.6 0 01-.112.164l-.015.014-4.977 4.899a.55.55 0 01-.39.16z"/></svg><svg viewBox="0 0 511.634 511.634" id="calendar" xmlns="http://www.w3.org/2000/svg"><path d="M482.513 83.942c-7.225-7.233-15.797-10.85-25.694-10.85h-36.541v-27.41c0-12.56-4.477-23.315-13.422-32.261C397.906 4.475 387.157 0 374.591 0h-18.268c-12.565 0-23.318 4.475-32.264 13.422-8.949 8.945-13.422 19.701-13.422 32.261v27.41h-109.63v-27.41c0-12.56-4.475-23.315-13.422-32.261C178.64 4.475 167.886 0 155.321 0H137.05c-12.562 0-23.317 4.475-32.264 13.422-8.945 8.945-13.421 19.701-13.421 32.261v27.41H54.823c-9.9 0-18.464 3.617-25.697 10.85-7.233 7.232-10.85 15.8-10.85 25.697v365.453c0 9.89 3.617 18.456 10.85 25.693 7.232 7.231 15.796 10.849 25.697 10.849h401.989c9.897 0 18.47-3.617 25.694-10.849 7.234-7.234 10.852-15.804 10.852-25.693V109.639c-.001-9.9-3.615-18.464-10.845-25.697zM137.047 475.088H54.823v-82.23h82.224v82.23zm0-100.498H54.823v-91.358h82.224v91.358zm0-109.639H54.823v-82.223h82.224v82.223zm-6.42-130.618c-1.809-1.809-2.712-3.946-2.712-6.423V45.686c0-2.474.903-4.617 2.712-6.423 1.809-1.809 3.946-2.712 6.423-2.712h18.271c2.474 0 4.617.903 6.423 2.712 1.809 1.807 2.714 3.949 2.714 6.423v82.224c0 2.478-.909 4.615-2.714 6.423-1.807 1.809-3.946 2.712-6.423 2.712H137.05c-2.474.001-4.614-.903-6.423-2.712zm116.056 340.755h-91.365v-82.23h91.365v82.23zm0-100.498h-91.365v-91.358h91.365v91.358zm0-109.639h-91.365v-82.223h91.365v82.223zm109.64 210.137h-91.364v-82.23h91.364v82.23zm0-100.498h-91.364v-91.358h91.364v91.358zm0-109.639h-91.364v-82.223h91.364v82.223zm-6.427-130.618c-1.807-1.809-2.707-3.946-2.707-6.423V45.686c0-2.474.9-4.617 2.707-6.423 1.808-1.809 3.949-2.712 6.427-2.712h18.268c2.478 0 4.617.903 6.427 2.712 1.808 1.807 2.707 3.949 2.707 6.423v82.224c0 2.478-.903 4.615-2.707 6.423-1.807 1.809-3.949 2.712-6.427 2.712h-18.268c-2.477.001-4.626-.903-6.427-2.712zm106.916 340.755h-82.228v-82.23h82.228v82.23zm0-100.498h-82.228v-91.358h82.228v91.358zm0-109.639h-82.228v-82.223h82.228v82.223z"/></svg><svg viewBox="0 0 21 19" id="favorites" xmlns="http://www.w3.org/2000/svg"><path fill-rule="evenodd" fill="#243f4d" d="M10.913 17.244a.707.707 0 01-.28-.056c-.353-.15-8.65-3.75-8.65-10.76.091-2.65 2.207-4.707 4.818-4.707 1.743 0 3.266.918 4.112 2.31a4.796 4.796 0 014.112-2.31c2.61 0 4.725 2.058 4.817 4.684 0 7.034-8.297 10.634-8.65 10.783a.71.71 0 01-.279.056zM6.801 3.106c-1.847 0-3.343 1.47-3.408 3.346 0 5.408 6.125 8.663 7.52 9.335 1.395-.672 7.52-3.93 7.52-9.358-.065-1.853-1.563-3.323-3.408-3.323s-3.342 1.47-3.408 3.346a.7.7 0 01-.704.67.7.7 0 01-.705-.67c-.064-1.876-1.561-3.346-3.407-3.346z"/></svg><svg viewBox="0 0 26 23" id="product-basket" xmlns="http://www.w3.org/2000/svg"><path fill-rule="evenodd" fill="var(--product-basket-fill)" d="M2.814 3.629h2.333L8.47 15.667c.095.353.42.597.787.597h10.214c.326 0 .61-.19.746-.488l3.717-8.56a.828.828 0 00-.068-.776.81.81 0 00-.678-.366H11.902a.817.817 0 000 1.631H21.94l-3.011 6.929H9.867L6.544 2.596a.814.814 0 00-.787-.598H2.814A.818.818 0 002 2.814c0 .448.366.815.814.815zm5.67 18.37a1.849 1.849 0 000-3.696 1.848 1.848 0 000 3.696zm11.53 0h.135c.489-.041.936-.259 1.262-.64a1.85 1.85 0 00-1.52-3.057 1.85 1.85 0 00-1.708 1.971 1.85 1.85 0 001.83 1.726z"/></svg><svg viewBox="0 0 26 21" id="product-favorites" xmlns="http://www.w3.org/2000/svg"><path fill-rule="evenodd" fill="var(--product-favorites-fill)" d="M23.99 7.82a6.211 6.211 0 00-1.849-4.1c-1.125-1.11-2.596-1.721-4.139-1.721-2.311 0-3.948 1.785-4.827 2.745l-.156.17-.083-.095C12.132 3.903 10.46 2 7.998 2c-1.543 0-3.013.61-4.139 1.72A6.21 6.21 0 002.01 7.82c-.082 1.541.31 2.88 1.27 4.338.862 1.308 3.105 3.374 4.764 4.748 1.705 1.41 3.95 3.093 4.965 3.093 1.032 0 3.27-1.68 4.965-3.087 1.646-1.367 3.876-3.432 4.746-4.754.646-.984 1.375-2.366 1.27-4.338zm-2.376 3.61c-.632.961-2.412 2.736-4.43 4.418-2.407 2.004-3.832 2.795-4.173 2.826-.342-.035-1.77-.833-4.188-2.843-2.03-1.686-3.813-3.454-4.437-4.402-.795-1.206-1.12-2.297-1.054-3.538.135-2.519 2.228-4.57 4.666-4.57 1.863 0 3.216 1.543 3.943 2.371.428.488.663.755 1.06.755.408 0 .671-.286 1.15-.81.794-.865 2.122-2.315 3.851-2.315 2.438 0 4.531 2.05 4.666 4.57.067 1.253-.248 2.312-1.054 3.538z"/></svg><svg viewBox="0 0 24 24" id="product-search" xmlns="http://www.w3.org/2000/svg"><path fill-rule="evenodd" fill="var(--product-search-fill)" d="M21.45 18.798l-4.588-4.589a8.813 8.813 0 01-2.651 2.651l4.588 4.588a1.874 1.874 0 102.651-2.65zM17 9.498a7.502 7.502 0 00-7.5-7.5 7.501 7.501 0 000 15 7.5 7.5 0 007.5-7.5zm-7.5 5.625A5.63 5.63 0 013.875 9.5 5.632 5.632 0 019.5 3.873a5.632 5.632 0 015.625 5.626A5.63 5.63 0 019.5 15.123zM5.125 9.5h1.25A3.128 3.128 0 019.5 6.374v-1.25a4.38 4.38 0 00-4.375 4.375z"/></svg><svg viewBox="0 0 19 20" id="search" xmlns="http://www.w3.org/2000/svg"><path fill-rule="evenodd" fill="var(--search-fill)" d="M4.702 8.076c.356-.065.68.13.746.484.096.582.355 1.067.78 1.49.42.388.941.677 1.493.776.325.066.552.39.487.743a.643.643 0 01-.714.516 4.2 4.2 0 01-2.143-1.13 4.165 4.165 0 01-1.136-2.137c-.065-.354.128-.676.487-.742zm3.278-6.08c3.466 0 6.279 2.8 6.279 6.257 0 .93-.203 1.812-.568 2.604l2.336 2.036c1.703 1.747.746 3.266.294 3.717-.422.454-1.993 1.415-3.73-.292l-2.06-2.35c-.78.345-1.64.539-2.548.539-3.468 0-6.278-2.802-6.278-6.257 0-3.456 2.807-6.254 6.275-6.254zm5.546 13.517c.293.324 1.126.867 1.88.226.21-.176.634-1.068-.227-1.873l-2.162-1.88a6.267 6.267 0 01-1.363 1.34l1.872 2.187zM7.98 13.201c2.742 0 4.966-2.216 4.966-4.948S10.722 3.305 7.98 3.305 3.015 5.521 3.015 8.253s2.22 4.948 4.965 4.948z"/></svg><svg viewBox="0 0 53 52" id="support" xmlns="http://www.w3.org/2000/svg"><path fill-rule="evenodd" fill="#a3bbc8" d="M47.312 12.67a.938.938 0 10-1.592.992 22.618 22.618 0 013.424 11.988c0 12.506-10.175 22.68-22.68 22.68-4.952 0-9.656-1.566-13.604-4.53a.937.937 0 10-1.125 1.5c4.275 3.21 9.368 4.906 14.728 4.906 13.54 0 24.556-11.016 24.556-24.556 0-4.604-1.282-9.093-3.707-12.98zm-23.03 21.938h-7.55l4.743-4.743a12.698 12.698 0 003.744-9.039 5.851 5.851 0 00-5.844-5.844 5.851 5.851 0 00-5.844 5.844.938.938 0 101.875 0c0-2.189 1.78-3.97 3.969-3.97 2.188 0 3.969 1.781 3.969 3.97 0 2.914-1.135 5.653-3.195 7.714l-6.344 6.343a.938.938 0 00.663 1.6h9.813a.938.938 0 000-1.875zm15.04-6.437H36.72v-1.517a.938.938 0 00-1.875 0v1.517h-5.286l5.286-8.853v4.21a.937.937 0 101.875 0V15.92v-.008a.936.936 0 00-1.743-.473l-7.875 13.19a.937.937 0 00.805 1.418h6.938v5.5a.938.938 0 001.875 0v-5.5h2.601a.938.938 0 000-1.875zM44.65 5.538a.938.938 0 00-1.875.045l.042 1.749a24.405 24.405 0 00-6.345-4.112 24.367 24.367 0 00-10.01-2.126c-13.54 0-24.556 11.016-24.556 24.556 0 6.648 2.615 12.875 7.362 17.53a.931.931 0 001.326-.012.937.937 0 00-.014-1.325C6.197 37.541 3.782 31.79 3.782 25.65c0-12.506 10.175-22.68 22.681-22.68A22.76 22.76 0 0141.57 8.736l-1.843.043a.937.937 0 00.022 1.874h.023l4.06-.096a.938.938 0 00.915-.96l-.096-4.06z"/></svg><svg viewBox="0 0 32 32" id="user" xmlns="http://www.w3.org/2000/svg"><path d="M16 22c4.963 0 9-4.936 9-11S20.962 0 16 0c-2.447 0-4.734 1.174-6.438 3.305C7.909 5.37 7 8.104 7 11.001 7 17.064 11.037 22 16 22zm0-19.999c3.859 0 7 4.037 7 9 0 4.962-3.141 9-7 9s-7-4.038-7.001-9c0-4.963 3.141-9 7.001-9zM23 20a1 1 0 100 2c3.859 0 7 3.141 7 7 0 .551-.449 1-1 1H3c-.551 0-1-.449-1-1 0-3.859 3.141-7 7-7a1 1 0 100-2c-4.963 0-9 4.037-9 9 0 1.654 1.346 3 3 3h26c1.654 0 3-1.346 3-3 0-4.962-4.037-9-9-9z"/></svg><svg viewBox="0 0 127 127" id="video_arrow" xmlns="http://www.w3.org/2000/svg"><path fill="var(--circle127-fill)" d="M56.58 0h14.05l1.02.2c3.02.72 6.03 1.46 9.05 2.2 17.94 4.92 33.19 18.15 40.74 35.14 2.89 6.15 4.1 12.46 5.56 19.05v14.04c-.71 3.38-1.6 6.72-2.4 10.07-4.95 18.19-18.54 33.6-35.83 41.04-5.95 2.7-11.96 3.83-18.36 5.26H56.36c-3.37-.71-6.7-1.6-10.06-2.4-17.45-4.79-32.38-17.44-40.11-33.79C2.92 84.31 1.55 77.45 0 70.42V56.36c1.54-6.47 2.69-12.76 5.56-18.81 7.55-17 22.8-30.22 40.75-35.15C49.72 1.55 53.14.71 56.58 0z"/><path fill="var(--circle98-fill)" d="M56.41 14.46c18.39-2.61 37.4 6.01 47.51 21.59 10.43 15.57 10.75 36.76.8 52.65-7.13 11.67-19.27 20.01-32.72 22.45-11.13 2.12-22.93.2-32.81-5.34-10.66-5.85-18.85-15.8-22.68-27.33-5.04-15.02-2.32-32.1 7.21-44.76 7.7-10.45 19.83-17.56 32.69-19.26z"/><path fill="var(--arrow-fill)" d="M57.53 50.52c4.71 2.47 9.1 5.59 13.75 8.21 1.74 1.34 4.59 2.19 3.45 4.95-4.2 3.58-9.48 5.9-14.03 9.05-2.39 1.23-5 3.74-7.34.95-.73-3.77-.27-7.85-.36-11.68.05-3.5-.33-7.24.36-10.68 1.23-1.37 2.5-1.69 4.17-.8z"/></svg></svg>