<?xml version="1.0" encoding="UTF-8" standalone="no"?>
<svg xmlns:dc="http://purl.org/dc/elements/1.1/" xmlns:cc="http://creativecommons.org/ns#" xmlns:rdf="http://www.w3.org/1999/02/22-rdf-syntax-ns#" xmlns:svg="http://www.w3.org/2000/svg" xmlns="http://www.w3.org/2000/svg" xmlns:sodipodi="http://sodipodi.sourceforge.net/DTD/sodipodi-0.dtd" xmlns:inkscape="http://www.inkscape.org/namespaces/inkscape" version="1.1" viewBox="0 0 127 127" width="127.0pt" height="127.0pt" id="svg16" sodipodi:docname="video_aroww (2).svg" inkscape:version="1.0.2 (e86c870879, 2021-01-15, custom)">
  <metadata id="metadata22">
    <rdf:RDF>
      <cc:Work rdf:about="">
        <dc:format>image/svg+xml</dc:format>
        <dc:type rdf:resource="http://purl.org/dc/dcmitype/StillImage" />
        <dc:title></dc:title>
      </cc:Work>
    </rdf:RDF>
  </metadata>
  <defs id="defs20" />
  <sodipodi:namedview pagecolor="#ffffff" bordercolor="#666666" borderopacity="1" objecttolerance="10" gridtolerance="10" guidetolerance="10" inkscape:pageopacity="0" inkscape:pageshadow="2" inkscape:window-width="1920" inkscape:window-height="1027" id="namedview18" showgrid="false" inkscape:zoom="3.7279094" inkscape:cx="8.28866" inkscape:cy="91.836574" inkscape:window-x="-8" inkscape:window-y="-8" inkscape:window-maximized="1" inkscape:current-layer="svg16" />
  <path fill="var(--circle127-fill)" d="M 56.58 0.00 L 70.63 0.00 L 71.65 0.20 C 74.67 0.92 77.68 1.66 80.70 2.40 C 98.64 7.32 113.89 20.55 121.44 37.54 C 124.33 43.69 125.54 50.00 127.00 56.59 L 127.00 70.63 C 126.29 74.01 125.40 77.35 124.60 80.70 C 119.65 98.89 106.06 114.30 88.77 121.74 C 82.82 124.44 76.81 125.57 70.41 127.00 L 56.36 127.00 C 52.99 126.29 49.66 125.40 46.30 124.60 C 28.85 119.81 13.92 107.16 6.19 90.81 C 2.92 84.31 1.55 77.45 0.00 70.42 L 0.00 56.36 C 1.54 49.89 2.69 43.60 5.56 37.55 C 13.11 20.55 28.36 7.33 46.31 2.40 C 49.72 1.55 53.14 0.71 56.58 0.00 Z" />
  <path fill="var(--circle98-fill)" d="M 56.41 14.46 C 74.80 11.85 93.81 20.47 103.92 36.05 C 114.35 51.62 114.67 72.81 104.72 88.70 C 97.59 100.37 85.45 108.71 72.00 111.15 C 60.87 113.27 49.07 111.35 39.19 105.81 C 28.53 99.96 20.34 90.01 16.51 78.48 C 11.47 63.46 14.19 46.38 23.72 33.72 C 31.42 23.27 43.55 16.16 56.41 14.46 Z" />
  <path fill="var(--arrow-fill)" d="M 57.53 50.52 C 62.24 52.99 66.63 56.11 71.28 58.73 C 73.02 60.07 75.87 60.92 74.73 63.68 C 70.53 67.26 65.25 69.58 60.70 72.73 C 58.31 73.96 55.70 76.47 53.36 73.68 C 52.63 69.91 53.09 65.83 53.00 62.00 C 53.05 58.50 52.67 54.76 53.36 51.32 C 54.59 49.95 55.86 49.63 57.53 50.52 Z" />
</svg>
